<svg xmlns="http://www.w3.org/2000/svg" xmlns:xlink="http://www.w3.org/1999/xlink" viewBox="0 0 206.58 65.72"><defs><style>.cls-1{mask:url(#mask);filter:url(#luminosity-noclip-2);}.cls-2,.cls-7{mix-blend-mode:multiply;}.cls-2{fill:url(#linear-gradient);}.cls-3{isolation:isolate;}.cls-4{fill:#2374ba;}.cls-10,.cls-5{fill:#333e48;}.cls-6{fill:#ffc600;}.cls-8{mask:url(#mask-2);}.cls-9{fill:url(#linear-gradient-2);}.cls-10{font-size:22px;font-family:Poppins-Bold, Poppins;font-weight:700;}.cls-11{filter:url(#luminosity-noclip);}</style><filter id="luminosity-noclip" x="0" y="-8345.3" width="61.74" height="32766" filterUnits="userSpaceOnUse" color-interpolation-filters="sRGB"><feFlood flood-color="#fff" result="bg"/><feBlend in="SourceGraphic" in2="bg"/></filter><mask id="mask" x="0" y="-8345.3" width="61.74" height="32766" maskUnits="userSpaceOnUse"><g class="cls-11"/></mask><linearGradient id="linear-gradient" y1="32.86" x2="61.74" y2="32.86" gradientUnits="userSpaceOnUse"><stop offset="0" stop-color="#4d4d4d"/><stop offset="1"/></linearGradient><filter id="luminosity-noclip-2" x="0" y="0" width="61.74" height="65.72" filterUnits="userSpaceOnUse" color-interpolation-filters="sRGB"><feFlood flood-color="#fff" result="bg"/><feBlend in="SourceGraphic" in2="bg"/></filter><mask id="mask-2" x="0" y="0" width="61.74" height="65.72" maskUnits="userSpaceOnUse"><g class="cls-1"><path class="cls-2" d="M32.86,65.72A32.86,32.86,0,1,1,61.32,16.43l.35.6a.53.53,0,0,1-.19.72L57.65,20a.53.53,0,0,1-.72-.19l-.35-.6a27.4,27.4,0,1,0,0,27.39l.35-.6a.54.54,0,0,1,.72-.2L61.48,48a.49.49,0,0,1,.24.32.51.51,0,0,1,0,.4l-.35.6A33,33,0,0,1,32.86,65.72Z"/></g></mask><linearGradient id="linear-gradient-2" y1="32.86" x2="61.74" y2="32.86" gradientUnits="userSpaceOnUse"><stop offset="0"/><stop offset="1" stop-color="#fff"/></linearGradient></defs><g class="cls-3"><g id="Layer_2" data-name="Layer 2"><g id="Layer_1-2" data-name="Layer 1"><path class="cls-4" d="M32.86,65.72A32.86,32.86,0,1,1,61.32,16.43l.35.6a.53.53,0,0,1-.19.72L57.65,20a.53.53,0,0,1-.72-.19l-.35-.6a27.4,27.4,0,1,0,0,27.39l.35-.6a.54.54,0,0,1,.72-.2L61.48,48a.49.49,0,0,1,.24.32.51.51,0,0,1,0,.4l-.35.6A33,33,0,0,1,32.86,65.72Z"/><path class="cls-5" d="M32.86,15.09H43.94A1.49,1.49,0,0,1,45,17.63L40.2,22.44l-6.29,6.29a1.48,1.48,0,0,1-2.11,0l-6.28-6.29-4.8-4.81a1.49,1.49,0,0,1,1.06-2.54Z"/><path class="cls-6" d="M31.84,55.34l-5.46-6.53a2,2,0,0,1-.27-2l3.14-7.72,2.31-5.67a1.35,1.35,0,0,1,2.59,0l2.31,5.67,3.15,7.72a2,2,0,0,1-.28,2l-5.45,6.53A1.29,1.29,0,0,1,31.84,55.34Z"/><g class="cls-7"><g class="cls-8"><path class="cls-9" d="M32.86,65.72A32.86,32.86,0,1,1,61.32,16.43l.35.6a.53.53,0,0,1-.19.72L57.65,20a.53.53,0,0,1-.72-.19l-.35-.6a27.4,27.4,0,1,0,0,27.39l.35-.6a.54.54,0,0,1,.72-.2L61.48,48a.49.49,0,0,1,.24.32.51.51,0,0,1,0,.4l-.35.6A33,33,0,0,1,32.86,65.72Z"/></g></g><text class="cls-10" transform="translate(59.27 40.68)">Market Place</text></g></g></g></svg>